<?xml version="1.0" encoding="utf-8"?>
<!-- Generator: Adobe Illustrator 21.1.0, SVG Export Plug-In . SVG Version: 6.00 Build 0)  -->
<svg version="1.1" id="Layer_1" xmlns="http://www.w3.org/2000/svg" xmlns:xlink="http://www.w3.org/1999/xlink" x="0px" y="0px"
	 viewBox="0 0 1502 391.6" style="enable-background:new 0 0 1502 391.6;" xml:space="preserve">
<style type="text/css">
	.st0{fill:#14B24C;}
	.st1{fill:#212121;}
</style>
<title>Asset 1</title>
<g id="Layer_2">
	<g id="Layer_1-2">
		<path class="st0" d="M108,257.6c-59.3,0-107.4-48.1-107.4-107.4S48.7,42.8,108,42.8s107.3,48,107.4,107.3
			C215.3,209.4,167.3,257.5,108,257.6z M108,85.7c-35.4-0.1-64.2,28.5-64.3,63.9s28.5,64.2,63.9,64.3s64.2-28.4,64.3-63.8
			c0-35.3-28.6-63.9-63.9-64.1C108,86,108,85.7,108,85.7z"/>
		<path class="st0" d="M729.9,257.8C670.6,258,622.4,210,622.2,150.7S670,43.2,729.3,43S836.8,90.8,837,150.1c0,0.1,0,0.2,0,0.3
			C836.9,209.6,789,257.5,729.9,257.8z M729.9,85.9c-35.4,0-64.1,28.7-64.1,64.1s28.7,64.1,64.1,64.1c35.4,0,64.1-28.7,64.1-64.1
			c-0.2-35.3-28.8-63.8-64.1-63.8V85.9z"/>
		<path class="st0" d="M1137.1,257.8c-59.3,0-107.5-48-107.5-107.4c0-59.3,48-107.5,107.4-107.5c59.3,0,107.5,48,107.5,107.4v0.1
			c-0.1,11.9-9.8,21.5-21.7,21.4h-146.2c11.9,33.4,48.6,50.8,82,38.9c5.1-1.8,10-4.3,14.5-7.4c9.9-6.7,23.3-4.2,30,5.7
			s4.2,23.3-5.7,30l0,0C1179.8,251.3,1158.7,257.8,1137.1,257.8z M1076.7,128.7h120.8c-12-33.4-48.7-50.7-82.1-38.7
			C1097.4,96.5,1083.2,110.7,1076.7,128.7z"/>
		<path class="st0" d="M1394.4,257.8c-59.3-0.1-107.4-48.3-107.3-107.6s48.3-107.4,107.6-107.3C1454,43,1502,91.1,1502,150.4
			c-0.1,11.9-9.8,21.5-21.7,21.4h-0.1H1334c12,33.4,48.8,50.7,82.1,38.7c5.1-1.8,9.9-4.3,14.4-7.3c9.9-6.7,23.4-4.2,30.1,5.8
			c6.7,9.9,4.2,23.4-5.8,30.1l0,0C1437,251.3,1416,257.8,1394.4,257.8z M1334,128.7h120.8c-12-33.4-48.7-50.7-82.1-38.7
			C1354.7,96.5,1340.5,110.7,1334,128.7z"/>
		<path class="st0" d="M451.6,140.2h-43.3c0-29.7-24-53.7-53.7-53.7s-53.7,24-53.7,53.7h-43.3c3.6-53.5,50-94,103.5-90.3
			C409.6,53.1,448.2,91.7,451.6,140.2L451.6,140.2z"/>
		<path class="st0" d="M579.1,258c-43.5,0-78.7-35.2-78.9-78.7c0-11.9,9.7-21.6,21.6-21.6c11.9,0,21.6,9.7,21.6,21.6
			c0,19.7,16,35.6,35.6,35.6c11.9,0,21.6,9.7,21.6,21.6c0,11.9-9.7,21.6-21.6,21.6V258H579.1z"/>
		<path class="st0" d="M901.3,171.8c-11.9,0-21.6-9.7-21.6-21.6c0.2-59.6,48.6-107.9,108.2-108c11.9,0,21.6,9.7,21.6,21.6
			s-9.7,21.6-21.6,21.6c-35.9,0-65,29.1-65,65C922.7,162.4,913.1,171.8,901.3,171.8z"/>
		<path class="st0" d="M194.3,257c-11.9,0-21.6-9.7-21.6-21.6v-171c0-11.9,9.7-21.6,21.6-21.6c11.9,0,21.6,9.7,21.6,21.6v171
			c0,11.9-9.6,21.6-21.5,21.7C194.4,257,194.4,257,194.3,257z"/>
		<path class="st0" d="M279.4,257.5c-11.9,0-21.6-9.7-21.6-21.6v-171c0-11.9,9.7-21.6,21.6-21.6S301,53,301,64.9v171
			C301,247.8,291.4,257.5,279.4,257.5L279.4,257.5z"/>
		<path class="st0" d="M901.3,257c-11.9,0-21.6-9.7-21.6-21.6v-171c0-11.9,9.7-21.6,21.6-21.6S923,52.4,923,64.4v171
			c0,11.9-9.6,21.6-21.5,21.7C901.4,257,901.3,257,901.3,257z"/>
		<path class="st0" d="M521.8,200.8c-11.9,0-21.5-9.6-21.6-21.4V21.6c0-11.9,9.7-21.6,21.6-21.6c11.9,0,21.6,9.7,21.6,21.6v157.7
			C543.4,191.2,533.7,200.8,521.8,200.8z"/>
		<path class="st0" d="M429.9,257.5c-11.9,0-21.6-9.7-21.6-21.6v-99.4c0-11.9,9.7-21.6,21.6-21.6s21.6,9.7,21.6,21.6l0,0v99.4
			C451.6,247.8,441.9,257.5,429.9,257.5C430,257.5,429.9,257.5,429.9,257.5z"/>
		<path class="st0" d="M579.4,86.1h-86.2c-11.9,0-21.6-9.7-21.6-21.6s9.7-21.6,21.6-21.6h85.9c11.9,0,21.6,9.7,21.6,21.6
			s-9.7,21.6-21.6,21.6H579.4z"/>
		<path class="st1" d="M0,328.8c0-1.4,0.7-2.8,1.8-3.7c1.2-0.9,2.6-1.4,4.1-1.3c2.5-0.4,4.8,1.2,5.3,3.7c0.1,0.5,0.1,0.9,0,1.4v9.8
			c0,1.3,0,2.7,0,4.1s0,2.7,0,3.8v34.6h10.2l14-0.5c3.2,0,4.8,1.5,4.8,4.6s-1.7,5-5.1,5.6H15.6h-5.4c-2.5,0.2-5.1-0.1-7.5-1
			c-1.6-1.3-2.5-3.2-2.5-5.2V381c0-2.7,0-6.9,0-12.4s0-9.4,0-11.7V329H0V328.8z"/>
		<path class="st1" d="M55.1,328.8c0-3.3,2.3-5,6.9-5h28.5c3.5,0,5.3,1.5,5.3,4.5s-1,4.6-3.1,4.9h-27v19.7h4h15.9
			c1.6-0.1,3.2,0.2,4.6,0.9c1,0.6,1.5,1.8,1.3,3.7c0,3.1-1.7,4.6-5.1,4.6H65.6c0,0.6,0,1.5,0,2.5v16.1c2.6,0,10.1,0,22.4,0h3.1h1.6
			c2.9,0,4.3,1.6,4.3,4.8c0,3.2-1.8,5-5.5,5.3H65.1c-2.8,0.2-5.6-0.2-8.2-1.2c-1.6-1.2-2.4-3.1-2.2-5.1v-55.8h0.4V328.8z"/>
		<path class="st1" d="M106.2,386.1c0.2-2,0.7-3.9,1.6-5.6l9.7-22.4l12.1-29.9c1-2.5,3.5-4.1,6.2-3.8c2.9-0.3,5.6,1.3,6.6,4l2.4,6
			c1.1,2.7,2.4,6.1,4,10.2c3.1,8.2,5.3,13.7,6.5,16.5l0.7,1.3c0.3,0.6,0.6,1.2,0.8,1.8c3.2,8.2,5.8,14.6,7.9,19.4
			c0.5,1.1,0.8,2.3,0.9,3.5c-0.1,1.2-0.8,2.4-1.8,3.1c-1.2,1-2.7,1.5-4.2,1.5c-1.2,0.1-2.4-0.2-3.4-0.9c-1-0.8-1.7-1.9-2.1-3.1
			c-3.1-8.6-4.7-13.3-4.7-14.1h-26.8l-0.7,1.9l-1.4,4l-1.5,4.1c-0.4,1.1-0.8,2-1.1,2.8c-0.5,1.3-1.2,2.4-2.1,3.4
			c-0.8,0.8-1.9,1.1-3.1,1c-1.6,0-3.1-0.4-4.4-1.3c-1.2-0.9-2-2.3-1.9-3.8L106.2,386.1z M136.1,337.2c-0.4,1.4-1.5,4.4-3.2,9
			l-7.1,19.1H137h9.1l-9.9-27.9L136.1,337.2z"/>
		<path class="st1" d="M180.1,330.6c0-4.1,2.5-6.2,7.5-6.4h4.6h11.4c6,0,11.7,2.1,16.3,5.9c4.2,3.8,6.5,9.3,6.2,14.9
			c0.1,4.2-1.1,8.2-3.5,11.7c-2.3,3.3-5.6,5.7-9.3,6.9l14,18.9c0.9,1,1.4,2.2,1.5,3.5c0,1.4-0.7,2.7-1.8,3.5c-1.1,1-2.5,1.5-4,1.5
			c-1.9,0-3.7-1-4.7-2.6L203.4,366h-12.1v18.8c0,3.7-1.5,5.7-4.6,5.8c-1.7,0.3-3.5-0.1-4.9-1.2c-1.1-1.3-1.5-3-1.2-4.7
			c0-2.1,0-6.8,0-14.3v-32.2c0-0.8,0-1.8,0-2.9s0-2.1,0-2.9v-2.1L180.1,330.6z M201.2,333.5h-5.4h-5.2v23.7h9.8
			c3.8,0.2,7.5-0.8,10.6-2.9c2.8-2.2,4.3-5.6,4.1-9.2c0.4-3.3-0.9-6.6-3.4-8.8c-2.9-2-6.4-3-9.9-2.8L201.2,333.5L201.2,333.5z"/>
		<path class="st1" d="M255.1,384.8c0,4-1.7,6.1-5.2,6.1s-5.4-1.6-5.7-4.9v-9.1c0-4,0-9.2,0-15.4v-32.7c0-1.4,0.7-2.7,1.9-3.5
			c1.4-0.9,3-1.4,4.6-1.3c1.3-0.1,2.7,0.4,3.7,1.2c1.2,1.1,2.3,2.3,3.2,3.7l22.9,32.3l7.8,11.2c0-3.4,0-6.8,0-10.1s0-6.6,0-9.9
			v-21.6c-0.2-1.8,0.2-3.6,1.1-5.2c1.1-1.3,2.8-2,4.5-1.8c3.5,0,5.2,2.1,5.2,6.3V363c0,3.5,0,7.2,0,10.9c0,3.7,0,7.6,0,11.7
			c0,1.5-0.7,2.9-1.9,3.8c-1.4,1-3,1.5-4.7,1.5c-1.2,0.1-2.4-0.3-3.4-1c-1.2-1.1-2.3-2.4-3.2-3.7l-31.3-44.8c0,1,0,5.2,0,12.3
			C254.8,360.7,254.9,371.1,255.1,384.8z"/>
		<path class="st1" d="M348.2,328.8c0-3.3,2.3-5,6.9-5h28.5c3.5,0,5.3,1.5,5.3,4.5s-1,4.6-3.1,4.9h-27.2v19.7h4h15.9
			c1.6-0.1,3.2,0.2,4.6,0.9c1,0.6,1.5,1.8,1.3,3.7c0,3.1-1.7,4.6-5.1,4.6h-20.8c0,0.6,0,1.5,0,2.5v16.1c2.6,0,10.1,0,22.4,0h3.1h1.6
			c2.9,0,4.3,1.6,4.3,4.8c0,3.2-1.8,5-5.5,5.3h-26.5c-2.8,0.2-5.6-0.2-8.2-1.2c-1.6-1.2-2.4-3.1-2.2-5.1v-55.8h0.7V328.8z"/>
		<path class="st1" d="M415.9,384.8c0,4-1.7,6.1-5.2,6.1s-5.4-1.6-5.7-4.9v-9.1c0-4,0-9.2,0-15.4v-32.7c0-1.4,0.7-2.7,1.9-3.5
			c1.4-0.9,3-1.4,4.6-1.3c1.3-0.1,2.7,0.4,3.7,1.2c1.2,1.1,2.3,2.3,3.2,3.7l22.9,32.3l7.8,11.2c0-3.4,0-6.8,0-10.1s0-6.6,0-9.9
			v-21.6c-0.2-1.8,0.2-3.6,1.1-5.2c1.1-1.3,2.8-2,4.5-1.8c3.5,0,5.2,2.1,5.2,6.3V363c0,3.5,0,7.2,0,10.9c0,3.7,0,7.6,0,11.7
			c0,1.5-0.7,2.9-1.9,3.8c-1.4,1-3,1.5-4.7,1.5c-1.2,0.1-2.4-0.3-3.4-1c-1.2-1.1-2.3-2.4-3.2-3.7l-31.3-44.8c0,1,0,5.2,0,12.3
			C415.6,360.7,415.7,371.1,415.9,384.8z"/>
		<path class="st1" d="M509.7,323.5c6.6-0.1,13.2,1.6,18.8,5.1c2.3,1.4,3.4,2.9,3.4,4.6c0,1.3-0.4,2.5-1.3,3.5c-0.8,1-2,1.6-3.2,1.6
			c-1.9-0.2-3.7-0.8-5.2-1.9c-3.9-2.3-8.4-3.5-12.9-3.4c-5.8,0.2-11.2,2.8-14.9,7.1c-4.4,4.5-6.9,10.6-6.8,16.9
			c-0.5,6.5,1.6,12.9,5.7,18c4.1,4.4,10,6.8,16.1,6.6c4.9,0.2,9.6-1.8,12.9-5.4c3.1-3.5,4.9-8,5-12.6h-11.1c-1.2,0-2.4-0.5-3.2-1.4
			s-1.2-2-1.2-3.2c-0.3-2.3,1.4-4.4,3.7-4.6c0.3,0,0.6,0,1,0h14.9c1.9-0.3,3.8,0.5,5,1.9c1,1.7,1.5,3.6,1.3,5.6
			c0.2,8-2.7,15.7-8.2,21.4c-5.6,5.6-13.3,8.5-21.2,8.2c-8.5,0.1-16.6-3.3-22.4-9.4c-6.2-6.7-9.5-15.5-9.1-24.7
			c-0.1-18.7,14.9-34,33.6-34.2L509.7,323.5z"/>
		<path class="st1" d="M553.8,328.8c0-1.4,0.7-2.8,1.8-3.7c1.2-0.9,2.6-1.4,4.1-1.3c2.5-0.3,4.8,1.5,5.1,4c0,0.3,0,0.7,0,1v9.8
			c0,1.3,0,2.7,0,4.1s0,2.7,0,3.8v34.7h10.4l14-0.5c3.2,0,4.8,1.5,4.8,4.6s-1.7,5-5.1,5.6h-19.8h-5.4c-2.5,0.2-5.1-0.1-7.5-1
			c-1.6-1.3-2.5-3.2-2.5-5.2V381c0-2.7,0-6.9,0-12.4s0-9.4,0-11.7v-28.1H553.8z"/>
		<path class="st1" d="M608.6,350.2c0-1.5,0-4,0-7.5s0-8.1,0-14c-0.1-1.5,0.5-3,1.6-4c1.2-0.9,2.6-1.3,4.1-1.3
			c1.4-0.1,2.7,0.4,3.8,1.2c1,0.8,1.6,2.1,1.5,3.4v57.3c0.2,1.5-0.3,3-1.3,4.1c-1.1,0.9-2.5,1.4-4,1.3c-1.5,0.1-2.9-0.4-4.1-1.3
			c-1.1-1-1.7-2.4-1.6-3.8V377V350.2L608.6,350.2z"/>
		<path class="st1" d="M677.5,326.7c2,0.9,3.2,2.8,3.2,5c0,1.2-0.5,2.4-1.3,3.4s-2,1.6-3.2,1.6c-1.6-0.2-3.2-0.6-4.7-1.3
			c-3.4-1.6-7.2-2.4-11-2.4c-3.1-0.1-6.2,0.9-8.7,2.8c-2.2,1.7-3.5,4.3-3.5,7.1c0,1.1,0.3,2.2,0.9,3.1c0.5,0.8,1.1,1.5,1.8,2.1
			c1,0.7,2,1.2,3.1,1.5l1.9,0.7l1.5,0.4l1.6,0.4l2.5,0.6c5.7,1,11.1,3.1,15.9,6.3c3.8,3,5.9,7.8,5.6,12.6c0.2,5.7-2.2,11.3-6.7,14.9
			c-4.9,3.8-10.9,5.8-17.1,5.7c-6.4,0.1-12.8-1.2-18.7-4c-2.3-0.8-3.9-2.9-4-5.3c0-1.4,0.5-2.7,1.3-3.8c0.8-1.1,2.1-1.7,3.4-1.6
			c1.5,0.2,3,0.5,4.4,1c4.1,2.2,8.7,3.4,13.4,3.5c3.4,0.2,6.7-0.8,9.4-2.8c2.4-1.7,3.8-4.5,3.7-7.5c0.1-2.6-1.3-5.1-3.5-6.5
			c-3.1-1.7-6.5-2.9-10-3.5l-4.3-1l-3.7-1c-2.3-0.8-4.5-1.8-6.5-3.1c-2-1.2-3.7-2.9-4.7-5c-1.1-2.2-1.7-4.6-1.6-7.1
			c-0.1-5.7,2.5-11.1,7-14.6c4.6-3.9,10.5-6,16.6-5.9c5.8-0.1,11.6,1.1,16.9,3.5L677.5,326.7z"/>
		<path class="st1" d="M753.6,386.2c0,3.2-1.9,4.8-5.7,4.8s-5.6-1.6-5.5-4.8v-22.9H711v22.9c0,3-1.9,4.5-5.8,4.5s-5.7-1.5-5.4-4.6
			c0-1.3,0-3.3,0-6s0-6.1,0-10.2c0-8.1,0-14.4,0-18.8l-0.4-22.4c0-3.3,1.9-5,5.8-5s5.7,1.4,5.3,4.2v17.9c0,2.5,0,5,0,7.5H742v-24.4
			c-0.3-2.7,1.7-5.1,4.4-5.4c0.4,0,0.8,0,1.2,0c2.6-0.4,5,1.4,5.4,3.9c0.1,0.5,0.1,0.9,0,1.4v14.9c0,5,0,9.5,0,13.7L753.6,386.2z"/>
		<path class="st1" d="M831,323.3c8.4,0,16.5,3.4,22.4,9.4c6.3,6.3,9.8,14.9,9.5,23.8c0.3,9-2.9,17.8-8.8,24.5
			c-5.9,6.6-14.4,10.3-23.2,10.1c-8.4,0-16.4-3.2-22.4-9.1c-6.5-6.1-10-14.8-9.7-23.7c-0.3-9.6,3.3-18.9,9.9-25.8
			c5.7-6.3,13.9-9.9,22.4-9.8L831,323.3z M852.3,356.7c0.1-6.3-2.3-12.4-6.8-16.9c-4.1-4.3-9.7-6.6-15.6-6.6c-5.6,0-11,2.6-14.4,7.1
			c-4.1,4.9-6.2,11.2-6.1,17.6c-0.3,6.2,2,12.3,6.3,16.9c4.1,4.3,9.7,6.6,15.6,6.5c5.9,0,11.4-2.8,14.9-7.5
			C850.3,369.1,852.4,363,852.3,356.7z"/>
		<path class="st1" d="M890.3,384.8c0,4-1.7,6.1-5.2,6.1s-5.4-1.6-5.7-4.9v-9.1c0-4,0-9.2,0-15.4v-32.7c0-1.4,0.7-2.7,1.9-3.5
			c1.4-0.9,3-1.4,4.6-1.3c1.3-0.1,2.7,0.4,3.7,1.2c1.2,1.1,2.3,2.3,3.2,3.7l22.9,32.3l7.8,11.2c0-3.4,0-6.8,0-10.1s0-6.6,0-9.9
			v-21.6c-0.2-1.8,0.2-3.6,1.1-5.2c1.1-1.3,2.8-2,4.5-1.8c3.5,0,5.2,2.1,5.2,6.3V363c0,3.5,0,7.2,0,10.9c0,3.7,0,7.6,0,11.7
			c0,1.5-0.7,2.9-1.9,3.8c-1.4,1-3,1.5-4.7,1.5c-1.2,0.1-2.4-0.3-3.4-1c-1.2-1.1-2.3-2.4-3.2-3.7l-31.1-45c0,1,0,5.2,0,12.3
			C890,360.7,890.1,371.1,890.3,384.8z"/>
		<path class="st1" d="M953.7,328.8c0-1.4,0.7-2.8,1.8-3.7c1.2-0.9,2.6-1.4,4.1-1.3c2.5-0.3,4.8,1.5,5.1,4c0,0.3,0,0.7,0,1v9.8
			c0,1.3,0,2.7,0,4.1s0,2.7,0,3.8v34.7h10.4l14-0.5c3.2,0,4.8,1.5,4.8,4.6s-1.7,5-5.1,5.6h-19.7h-5.4c-2.5,0.2-5.1-0.1-7.5-1
			c-1.6-1.3-2.5-3.2-2.5-5.2V381c0-2.7,0-6.9,0-12.4s0-9.4,0-11.7V329h0V328.8z"/>
		<path class="st1" d="M1008.8,350.2c0-1.5,0-4,0-7.5s0-8.1,0-14c-0.1-1.5,0.5-3,1.6-4c1.2-0.9,2.6-1.3,4.1-1.3
			c1.4-0.1,2.7,0.4,3.8,1.2c1,0.8,1.6,2.1,1.5,3.4v57.3c0.2,1.5-0.3,3-1.3,4.1c-1.1,0.9-2.5,1.4-4,1.3c-1.5,0.1-2.9-0.4-4.1-1.3
			c-1.1-1-1.7-2.4-1.6-3.8V377V350.2L1008.8,350.2z"/>
		<path class="st1" d="M1050.8,384.8c0,4-1.7,6.1-5.2,6.1s-5.4-1.6-5.7-4.9v-9.1c0-4,0-9.2,0-15.4v-32.7c0-1.4,0.7-2.7,1.9-3.5
			c1.4-0.9,3-1.4,4.6-1.3c1.3-0.1,2.7,0.4,3.7,1.2c1.3,1.1,2.5,2.3,3.4,3.7l22.9,32.3l7.8,11.2c0-3.4,0-6.8,0-10.1s0-6.6,0-9.9
			v-21.6c-0.2-1.8,0.2-3.6,1.1-5.2c1.1-1.3,2.8-2,4.5-1.8c3.5,0,5.2,2.1,5.2,6.3V363c0,3.5,0,7.2,0,10.9c0,3.7,0,7.6,0,11.7
			c0,1.5-0.7,2.9-1.9,3.8c-1.4,1-3,1.5-4.7,1.5c-1.2,0.1-2.4-0.3-3.4-1c-1.2-1.1-2.3-2.4-3.2-3.7l-31.3-44.8c0,1,0,5.2,0,12.3
			C1050.7,360.7,1050.8,371.1,1050.8,384.8z"/>
		<path class="st1" d="M1115.5,328.8c0-3.3,2.3-5,6.9-5h28.3c3.5,0,5.3,1.5,5.3,4.5s-1,4.6-3.1,4.9h-27v19.7h4h15.9
			c1.6-0.1,3.2,0.2,4.6,0.9c1,0.6,1.5,1.8,1.3,3.7c0,3.1-1.7,4.6-5.1,4.6h-20.9c0,0.6,0,1.5,0,2.5v16.1c2.6,0,10.1,0,22.4,0h3.1h1.6
			c2.9,0,4.3,1.6,4.3,4.8c0,3.2-1.8,5-5.5,5.3h-26.4c-2.8,0.2-5.6-0.2-8.2-1.2c-1.6-1.2-2.4-3.1-2.2-5.1v-55.8h0.7V328.8z"/>
		<path class="st1" d="M1205,344.5c-1,0.7-2.2,1-3.4,1c-1.2-0.1-2.3-0.7-3.1-1.6c-0.9-0.9-1.5-2.1-1.5-3.4c0.1-1.9,1.1-3.7,2.8-4.7
			l7.9-5.7l4.7-3.4c1.5-1.1,3.1-1.9,4.8-2.5c1.3-0.6,2.8-0.6,4.1,0c1.9,0.4,3.1,2.1,3.1,4v11.2c0,3.2,0,5.9,0,8.1v38.9
			c0.1,1.3-0.5,2.6-1.6,3.4c-1.2,0.8-2.5,1.2-4,1.2c-1.4,0-2.7-0.4-3.7-1.3c-1-1-1.6-2.4-1.5-3.8c0-1.1,0-3,0-5.6s0-6.1,0-10.3
			c0-4.2,0-8,0-11.4s0-6.3,0-8.7v-12.8l-4.4,3.7l-4.7,3.5L1205,344.5z"/>
		<path class="st1" d="M1247.3,371.7c-1.3,0.1-2.6-0.4-3.5-1.3c-0.8-1-1.3-2.2-1.2-3.5c0-3.3,1.8-4.9,5.3-4.9h17.9
			c2.3-0.3,4.5,1.3,4.8,3.7c0,0.4,0,0.7,0,1.1c0,3.4-2,5.1-6,5.1L1247.3,371.7L1247.3,371.7z"/>
		<path class="st1" d="M1315.2,323.3c8.4,0,16.5,3.4,22.4,9.4c6.3,6.3,9.8,14.9,9.5,23.8c0.3,9-2.7,17.7-8.6,24.5
			c-5.8,6.8-14.4,10.6-23.3,10.5c-8.4,0-16.4-3.2-22.4-9.1c-6.5-6.1-10.1-14.8-9.7-23.8c-0.4-9.5,3.1-18.8,9.7-25.7
			c5.7-6.3,13.9-9.9,22.4-9.8V323.3z M1336.5,356.7c0.1-6.3-2.3-12.4-6.8-16.9c-4.1-4.3-9.7-6.6-15.6-6.6c-5.6,0-11,2.6-14.4,7.1
			c-4.1,4.9-6.2,11.2-6.1,17.6c-0.3,6.2,2,12.3,6.3,16.9c4.1,4.3,9.7,6.6,15.6,6.5c5.9,0,11.4-2.8,14.9-7.5
			C1334.5,369.1,1336.6,363,1336.5,356.7z"/>
		<path class="st1" d="M1375,384.8c0,4-1.7,6.1-5.2,6.1s-5.4-1.6-5.7-4.9v-9.1c0-4,0-9.2,0-15.4v-32.7c0-1.4,0.7-2.7,1.9-3.5
			c1.4-0.9,3-1.4,4.6-1.3c1.3-0.1,2.7,0.4,3.7,1.2c1.2,1.1,2.3,2.3,3.2,3.7l22.9,32.3l7.8,11.2c0-3.4,0-6.8,0-10.1
			c0-3.3,0-6.6,0-9.9v-21.6c-0.2-1.8,0.2-3.6,1.1-5.2c1.1-1.3,2.8-2,4.5-1.8c3.5,0,5.2,2.1,5.2,6.3V363c0,3.5,0,7.2,0,10.9
			c0,3.7,0,7.6,0,11.7c0,1.5-0.7,2.9-1.9,3.8c-1.4,1-3,1.5-4.7,1.5c-1.2,0.1-2.4-0.3-3.4-1c-1.2-1.1-2.3-2.4-3.2-3.7l-31.3-44.8
			c0,1,0,5.2,0,12.3C1374.7,360.7,1374.8,371.1,1375,384.8z"/>
		<path class="st1" d="M1438.9,371.7c-1.3,0.1-2.6-0.4-3.5-1.3c-0.8-1-1.3-2.2-1.2-3.5c0-3.3,1.8-4.9,5.3-4.9h17.7
			c2.3-0.3,4.5,1.3,4.8,3.7c0,0.4,0,0.7,0,1.1c0,3.4-2,5.1-6,5.1h-17.3L1438.9,371.7z"/>
		<path class="st1" d="M1482,344.5c-1,0.7-2.2,1-3.4,1c-1.2-0.1-2.3-0.7-3.1-1.6c-0.9-0.9-1.5-2.1-1.5-3.4c0.1-1.9,1.1-3.7,2.8-4.7
			l7.9-5.7l4.7-3.4c1.5-1.1,3.1-1.9,4.8-2.5c1.3-0.6,2.8-0.6,4.1,0c1.9,0.4,3.1,2.1,3.1,4v11.2c0,3.2,0,5.9,0,8.1v38.9
			c0.1,1.3-0.5,2.6-1.6,3.4c-1.2,0.8-2.5,1.2-4,1.2c-1.4,0-2.7-0.4-3.7-1.3c-1-1-1.6-2.4-1.5-3.8c0-1.1,0-3,0-5.6s0-6.1,0-10.3
			c0-4.2,0-8,0-11.4s0-6.3,0-8.7v-12.8l-4.4,3.7l-4.7,3.5L1482,344.5z"/>
	</g>
</g>
</svg>
